<svg xmlns="http://www.w3.org/2000/svg" aria-hidden="true" viewBox="0 0 24 24"><path d="M5.3 22c-.7.1-.7-.7-1-1.1-2.5-.6-2.6-1.2-2.4-3.6-2-1.3-2-2.2-.8-4.1-1.3-2-1-2.9.9-4.2-.3-2.3.2-2.9 2.4-3.5.2-2.5 1.4-2.6 3.5-2.4.5-.4.9-1.5 1.8-1.6.9-.2 1.6.5 2.3.8 1.9-1.2 2.9-1.1 4.1.8 2.4-.3 3 .1 3.6 2.4 1.4.3 3 1 2.4 2.9-.6 1.4 2.9 1.3 1 4.1-.4.5-.4.7 0 1.2 1.1 1.5.2 2.7-1.1 3.5.3 2.3-.2 3-2.4 3.5-.2.5-.4 1.3-1.2 1.1-1-.4-.5-1.8 0-2.3.5-.6 1.4-.4 2-.8-.5-1.8.1-2.6 1.5-3.6-1.1-1.5-.9-2.4 0-3.9-1.7-1.1-1.7-1.7-1.6-3.6-1.9-.4-2.4-1-2.8-2.8-1.6.5-2.7-.1-3.6-1.5-.1 0-.4.2-.5.3-1.2.7-2.4.2-3.4-.4C8.7 5 8.5 4.9 6.4 4.7 6 6.5 5.3 7.1 3.5 7.5c.5 1.6-.1 2.7-1.5 3.6 1.1 1.4.9 2.6 0 4 1.7 1.1 1.7 1.7 1.6 3.6.6.2 1.5.4 2 .8.5.9 1.1 2.3-.3 2.5z"/><path d="m19 12.7-.5-.5c.2-1.8-.4-3.9-2.7-3.3-.6-.1-.8-1-1.9-.9-1.1-.1-1.3.8-1.9.9-.6-.1-.7-1-1.8-.9-1.1-.1-1.3.8-1.9.9-2.2-.7-2.9 1.5-2.7 3.3l-.5.5c-2.1.4-2.1 3.9.1 4.3 1 7.1 12.3 7.6 13.5 0 2.3-.2 2.4-3.9.3-4.3zm-11.8-.6v-1.4c0-.1.1-.2.1-.2.1-.1.1 0 .2 0 .2.1.5.2.8.2.8 0 1.2-.4 1.5-.7.2-.2.2-.2.4-.2s.1 0 .4.2c.3.3.7.7 1.5.7s1.2-.4 1.5-.7c.2-.2.2-.2.4-.2.1 0 .1 0 .4.2.3.3.7.7 1.5.7.3 0 .5-.1.8-.2h.2c.1.1.1.2.1.2v1.4c0 .1 0 .3.1.4-.3-.9-1.2-1.5-2.2-1.5-.8 0-1.6.5-2 1.1-.2-.1-.4-.1-.6-.1-.2 0-.5 0-.8.1-.4-.7-1.1-1.1-2-1.1s-1.7.6-2.1 1.4c-.2-.1-.2-.2-.2-.3zm8.2 1.2c0 .4-.3.7-.7.7s-.7-.3-.7-.7.3-.7.7-.7c.4 0 .7.3.7.7zm-5.4 0c0 .4-.3.7-.7.7s-.7-.3-.7-.7.3-.7.7-.7.7.3.7.7zm8.8 1.8c-.1.1-.3.2-.4.2h-.3c-.4 0-.8.3-.8.7v.1c-.2 2.7-2.5 4.8-5.3 4.8-2.7 0-5-2.1-5.3-4.8 0-.4-.4-.8-.8-.8h-.3c-.3 0-.6-.3-.6-.6s.3-.6.6-.6h1.5c.3.9 1.2 1.5 2.2 1.5 1.1 0 2-.8 2.3-1.8.1-.1.3-.2.4-.2.2 0 .4.2.4.2.2 1 1.2 1.8 2.3 1.8 1 0 1.8-.6 2.2-1.5h1.5c.3 0 .6.3.6.6 0 .2-.1.3-.2.4z"/><path d="M12.1 19.9s-.1 0 0 0c-.5 0-.9-.4-.8-.8 0-.4.4-.8.8-.8.1 0 1.3 0 2.1-1.2.2-.4.7-.5 1.1-.3.4.2.5.7.3 1.1-1.2 1.9-3.1 2-3.5 2z"/></svg>